<?xml version="1.0" encoding="utf-8"?>
<!-- Generator: Adobe Illustrator 24.2.3, SVG Export Plug-In . SVG Version: 6.00 Build 0)  -->
<svg version="1.1" id="Layer_1" xmlns="http://www.w3.org/2000/svg" xmlns:xlink="http://www.w3.org/1999/xlink" x="0px" y="0px"
	 viewBox="0 0 24 24" style="enable-background:new 0 0 24 24;" xml:space="preserve">
<style type="text/css">
	.st0{fill-rule:evenodd;clip-rule:evenodd;fill:#8854A1;}
	.st1{fill-rule:evenodd;clip-rule:evenodd;fill:#FFFFFF;}
</style>
<circle class="st0" cx="12" cy="12" r="12"/>
<g>
	<path class="st1" d="M6.4,15.4L6,17.6h5.1c-1,0-0.8-2.2-2.3-2.2H6.4z"/>
	<path class="st1" d="M15.4,12.9c1.4-0.5,2.2-1.8,2.2-3.3c-0.1-1.8-1.7-3.3-3.6-3.3H7.9L7.5,8.6h5V8l1.9,1.8l-1.9,1.8v-0.8H7.2
		l-0.4,2.3h3.8c0.9,0,1.7,0.5,2.1,1.2l1.2,2.2c0.3,0.6,1,1,1.7,1H18L15.4,12.9z"/>
</g>
</svg>
